<?xml version="1.0" encoding="UTF-8"?>
<svg xmlns="http://www.w3.org/2000/svg" xmlns:xlink="http://www.w3.org/1999/xlink" width="375pt" height="374.999991pt" viewBox="0 0 375 374.999991" version="1.2">
<defs>
<clipPath id="clip1">
  <path d="M 167 237 L 207 237 L 207 273.195312 L 167 273.195312 Z M 167 237 "/>
</clipPath>
</defs>
<g id="surface1">
<rect x="0" y="0" width="375" height="374.999991" style="fill:rgb(100%,100%,100%);fill-opacity:1;stroke:none;"/>
<rect x="0" y="0" width="375" height="374.999991" style="fill:rgb(100%,100%,100%);fill-opacity:1;stroke:none;"/>
<rect x="0" y="0" width="375" height="374.999991" style="fill:rgb(85.879517%,74.508667%,63.139343%);fill-opacity:1;stroke:none;"/>
<path style=" stroke:none;fill-rule:nonzero;fill:rgb(30.198669%,31.369019%,34.118652%);fill-opacity:1;" d="M 188.515625 159.183594 C 188.515625 159.183594 189.351562 159.070312 192.15625 161.976562 C 194.957031 164.882812 199.597656 174.390625 199.597656 174.390625 C 215.617188 198.769531 195.578125 234.441406 195.578125 234.441406 C 197.484375 231.421875 221.140625 214.199219 236.167969 211.289062 C 251.191406 208.382812 261.171875 196.417969 261.171875 196.417969 C 255.566406 225.269531 207.128906 240.925781 207.128906 240.925781 C 207.128906 240.925781 266.554688 229.746094 266.554688 195.078125 C 266.554688 160.414062 262.292969 194.628906 236.839844 204.023438 C 211.386719 213.417969 199.597656 229.074219 199.597656 229.074219 C 199.597656 229.074219 219.796875 205.476562 204.324219 171.148438 C 204.324219 171.148438 199.726562 163.433594 195.800781 158.847656 C 191.875 154.261719 191.875 151.914062 188.515625 151.914062 L 187.796875 151.914062 C 184.433594 151.914062 184.433594 154.261719 180.511719 158.847656 C 176.582031 163.433594 171.988281 171.148438 171.988281 171.148438 C 156.511719 205.476562 176.710938 229.074219 176.710938 229.074219 C 176.710938 229.074219 164.925781 213.417969 139.472656 204.023438 C 114.019531 194.628906 109.757812 160.414062 109.757812 195.078125 C 109.757812 229.746094 169.183594 240.925781 169.183594 240.925781 C 169.183594 240.925781 120.746094 225.269531 115.136719 196.417969 C 115.136719 196.417969 125.117188 208.382812 140.140625 211.289062 C 155.167969 214.199219 178.828125 231.421875 180.734375 234.441406 C 180.734375 234.441406 160.691406 198.769531 176.710938 174.390625 C 176.710938 174.390625 181.351562 164.882812 184.15625 161.976562 C 186.957031 159.070312 187.796875 159.183594 187.796875 159.183594 L 188.515625 159.183594 "/>
<path style=" stroke:none;fill-rule:nonzero;fill:rgb(30.198669%,31.369019%,34.118652%);fill-opacity:1;" d="M 239.640625 199.160156 C 239.640625 199.160156 262.855469 178.023438 261.507812 146.488281 C 260.164062 114.957031 257.726562 120.074219 255.035156 126.363281 C 252.34375 132.652344 245.53125 150.683594 239.640625 155.714844 C 233.757812 160.75 220.628906 182.453125 215.257812 192.449219 C 215.257812 192.449219 229.890625 169.972656 239.472656 162.761719 C 249.0625 155.546875 256.628906 136.425781 256.628906 136.425781 C 256.628906 136.425781 261.300781 161.664062 239.640625 199.160156 "/>
<path style=" stroke:none;fill-rule:nonzero;fill:rgb(30.198669%,31.369019%,34.118652%);fill-opacity:1;" d="M 226.1875 167.960938 C 226.1875 167.960938 221.816406 133.574219 214.246094 131.394531 C 206.675781 129.214844 196.25 154.375 196.25 154.375 C 196.25 154.375 206.792969 137.273438 213.238281 138.105469 C 217.777344 138.691406 226.1875 167.960938 226.1875 167.960938 "/>
<path style=" stroke:none;fill-rule:nonzero;fill:rgb(30.198669%,31.369019%,34.118652%);fill-opacity:1;" d="M 134.890625 199.160156 C 134.890625 199.160156 111.679688 178.023438 113.027344 146.488281 C 114.371094 114.957031 116.808594 120.074219 119.5 126.363281 C 122.191406 132.652344 129.003906 150.683594 134.890625 155.714844 C 140.777344 160.75 153.902344 182.453125 159.277344 192.449219 C 159.277344 192.449219 144.644531 169.972656 135.058594 162.761719 C 125.46875 155.546875 117.902344 136.425781 117.902344 136.425781 C 117.902344 136.425781 113.234375 161.664062 134.890625 199.160156 "/>
<path style=" stroke:none;fill-rule:nonzero;fill:rgb(30.198669%,31.369019%,34.118652%);fill-opacity:1;" d="M 148.34375 167.960938 C 148.34375 167.960938 152.71875 133.574219 160.285156 131.394531 C 167.855469 129.214844 178.28125 154.375 178.28125 154.375 C 178.28125 154.375 167.742188 137.273438 161.296875 138.105469 C 156.753906 138.691406 148.34375 167.960938 148.34375 167.960938 "/>
<path style=" stroke:none;fill-rule:nonzero;fill:rgb(30.198669%,31.369019%,34.118652%);fill-opacity:1;" d="M 174.832031 138.492188 C 174.832031 138.492188 180.511719 104.167969 188.152344 104.167969 C 195.800781 104.167969 200.511719 138.492188 200.511719 138.492188 C 200.511719 138.492188 192.621094 109.535156 188.152344 109.535156 C 183.691406 109.535156 174.832031 138.492188 174.832031 138.492188 "/>
<path style=" stroke:none;fill-rule:nonzero;fill:rgb(30.198669%,31.369019%,34.118652%);fill-opacity:1;" d="M 251.191406 129.324219 C 251.191406 129.324219 251.527344 114.902344 247.046875 108.191406 C 242.558594 101.484375 241.4375 105.285156 240.429688 112.773438 C 239.417969 120.265625 234.933594 139.164062 225.515625 145.988281 C 225.515625 145.988281 238.632812 138.609375 243.679688 111.992188 C 243.679688 111.992188 243.902344 108.863281 246.148438 112.664062 C 248.390625 116.464844 251.191406 129.324219 251.191406 129.324219 "/>
<path style=" stroke:none;fill-rule:nonzero;fill:rgb(30.198669%,31.369019%,34.118652%);fill-opacity:1;" d="M 263.527344 164.105469 C 263.527344 164.105469 276.898438 142.71875 280.429688 136.257812 C 283.964844 129.800781 285.054688 124.9375 283.964844 122 C 282.871094 119.066406 284.214844 118.53125 286.179688 120.882812 C 288.140625 123.234375 288.5625 133.488281 286.179688 140.871094 C 283.796875 148.253906 272.105469 172.910156 272.105469 172.910156 C 272.105469 172.910156 286.394531 140.011719 285.8125 129.96875 C 285.8125 129.96875 279.671875 146.40625 263.527344 164.105469 "/>
<path style=" stroke:none;fill-rule:nonzero;fill:rgb(30.198669%,31.369019%,34.118652%);fill-opacity:1;" d="M 268.570312 178.304688 C 268.570312 178.304688 286.960938 168.015625 303.332031 144.984375 C 303.332031 144.984375 308.378906 138.605469 308.714844 136.703125 C 309.050781 134.804688 311.742188 131.453125 311.515625 136.703125 C 311.292969 141.960938 309.722656 156.273438 290.886719 177.410156 C 290.886719 177.410156 303.78125 160.859375 307.257812 144.644531 C 307.257812 144.644531 296.492188 165.894531 268.570312 178.304688 "/>
<path style=" stroke:none;fill-rule:nonzero;fill:rgb(30.198669%,31.369019%,34.118652%);fill-opacity:1;" d="M 270.144531 194.519531 C 270.144531 194.519531 297.050781 181.097656 303.21875 167.960938 C 309.386719 154.820312 311.183594 157.28125 310.171875 165.332031 C 309.164062 173.386719 303.390625 191.105469 263.527344 215.09375 C 263.527344 215.09375 296.941406 192.617188 305.910156 170.589844 C 305.910156 170.589844 289.652344 190.941406 270.144531 194.519531 "/>
<path style=" stroke:none;fill-rule:nonzero;fill:rgb(30.198669%,31.369019%,34.118652%);fill-opacity:1;" d="M 206.453125 129.664062 C 206.453125 129.664062 215.871094 111.097656 220.695312 111.546875 C 225.515625 111.992188 226.972656 137.265625 226.972656 137.265625 C 226.972656 137.265625 222.601562 118.816406 219.910156 117.921875 C 217.21875 117.027344 210.714844 124.070312 206.453125 129.664062 "/>
<path style=" stroke:none;fill-rule:nonzero;fill:rgb(30.198669%,31.369019%,34.118652%);fill-opacity:1;" d="M 124.839844 129.324219 C 124.839844 129.324219 124.5 114.902344 128.984375 108.191406 C 133.472656 101.484375 134.589844 105.285156 135.601562 112.773438 C 136.609375 120.265625 141.09375 139.164062 150.515625 145.988281 C 150.515625 145.988281 137.394531 138.609375 132.351562 111.992188 C 132.351562 111.992188 132.128906 108.863281 129.882812 112.664062 C 127.640625 116.464844 124.839844 129.324219 124.839844 129.324219 "/>
<path style=" stroke:none;fill-rule:nonzero;fill:rgb(30.198669%,31.369019%,34.118652%);fill-opacity:1;" d="M 112.503906 164.105469 C 112.503906 164.105469 99.132812 142.71875 95.601562 136.257812 C 92.066406 129.800781 90.976562 124.9375 92.066406 122 C 93.160156 119.066406 91.8125 118.53125 89.851562 120.882812 C 87.890625 123.234375 87.46875 133.488281 89.851562 140.871094 C 92.234375 148.253906 103.925781 172.910156 103.925781 172.910156 C 103.925781 172.910156 89.636719 140.011719 90.21875 129.96875 C 90.21875 129.96875 96.355469 146.40625 112.503906 164.105469 "/>
<path style=" stroke:none;fill-rule:nonzero;fill:rgb(30.198669%,31.369019%,34.118652%);fill-opacity:1;" d="M 107.460938 178.304688 C 107.460938 178.304688 89.066406 168.015625 72.695312 144.984375 C 72.695312 144.984375 67.652344 138.605469 67.3125 136.703125 C 66.980469 134.804688 64.289062 131.453125 64.511719 136.703125 C 64.738281 141.960938 66.304688 156.273438 85.144531 177.410156 C 85.144531 177.410156 72.25 160.859375 68.773438 144.644531 C 68.773438 144.644531 79.539062 165.894531 107.460938 178.304688 "/>
<path style=" stroke:none;fill-rule:nonzero;fill:rgb(30.198669%,31.369019%,34.118652%);fill-opacity:1;" d="M 105.886719 194.519531 C 105.886719 194.519531 78.976562 181.097656 72.808594 167.960938 C 66.644531 154.820312 64.847656 157.28125 65.859375 165.332031 C 66.867188 173.386719 72.640625 191.105469 112.503906 215.09375 C 112.503906 215.09375 79.089844 192.617188 70.121094 170.589844 C 70.121094 170.589844 86.375 190.941406 105.886719 194.519531 "/>
<path style=" stroke:none;fill-rule:nonzero;fill:rgb(30.198669%,31.369019%,34.118652%);fill-opacity:1;" d="M 169.578125 129.664062 C 169.578125 129.664062 160.15625 111.097656 155.335938 111.546875 C 150.515625 111.992188 149.054688 137.265625 149.054688 137.265625 C 149.054688 137.265625 153.429688 118.816406 156.121094 117.921875 C 158.8125 117.027344 165.316406 124.070312 169.578125 129.664062 "/>
<path style=" stroke:none;fill-rule:nonzero;fill:rgb(30.198669%,31.369019%,34.118652%);fill-opacity:1;" d="M 188.152344 166.449219 C 188.152344 166.449219 193.179688 191.273438 188.152344 228.625 C 188.152344 228.625 184.65625 186.578125 188.152344 166.449219 "/>
<g clip-path="url(#clip1)" clip-rule="nonzero">
<path style=" stroke:none;fill-rule:nonzero;fill:rgb(30.198669%,31.369019%,34.118652%);fill-opacity:1;" d="M 186.6875 273.246094 C 186.6875 273.246094 191.839844 272.683594 201.257812 267.875 C 210.679688 263.070312 204.398438 253.339844 201.257812 246.070312 C 198.121094 238.800781 192.625 237.457031 192.625 237.457031 C 192.625 237.457031 199.15625 242.183594 200.585938 249.730469 C 202.015625 257.28125 200.660156 262.5625 196.460938 264.492188 C 192.261719 266.421875 186.6875 267.175781 186.6875 267.175781 L 186.601562 267.175781 C 186.601562 267.175781 181.03125 266.421875 176.828125 264.492188 C 172.628906 262.5625 171.273438 257.28125 172.703125 249.730469 C 174.132812 242.183594 180.664062 237.457031 180.664062 237.457031 C 180.664062 237.457031 175.171875 238.800781 172.027344 246.070312 C 168.890625 253.339844 162.613281 263.070312 172.027344 267.875 C 181.449219 272.683594 186.601562 273.246094 186.601562 273.246094 L 186.6875 273.246094 "/>
</g>
<path style=" stroke:none;fill-rule:nonzero;fill:rgb(30.198669%,31.369019%,34.118652%);fill-opacity:1;" d="M 249.625 230.75 C 264.203125 226.054688 300.867188 229.183594 335.347656 227.507812 C 369.824219 225.828125 359.734375 239.082031 308.769531 240.085938 C 257.808594 241.09375 236.617188 235.726562 236.617188 235.726562 C 236.617188 235.726562 282.25 239.246094 308.601562 237.570312 C 334.953125 235.894531 354.6875 230.972656 335.515625 231.195312 C 316.339844 231.421875 249.625 230.75 249.625 230.75 "/>
<path style=" stroke:none;fill-rule:nonzero;fill:rgb(30.198669%,31.369019%,34.118652%);fill-opacity:1;" d="M 214.082031 246.796875 C 214.082031 246.796875 255.582031 265.597656 300.695312 250.824219 C 300.695312 250.824219 308.769531 248.304688 297.503906 247.972656 C 286.234375 247.632812 267.175781 249.339844 247.046875 242.269531 C 247.046875 242.269531 267.816406 252.667969 288.417969 251.074219 C 288.417969 251.074219 257.050781 258.035156 214.082031 246.796875 "/>
<path style=" stroke:none;fill-rule:nonzero;fill:rgb(30.198669%,31.369019%,34.118652%);fill-opacity:1;" d="M 125.539062 230.75 C 110.960938 226.054688 74.296875 229.183594 39.816406 227.507812 C 5.335938 225.828125 15.429688 239.082031 66.390625 240.085938 C 117.351562 241.09375 138.542969 235.726562 138.542969 235.726562 C 138.542969 235.726562 92.910156 239.246094 66.558594 237.570312 C 40.207031 235.894531 20.476562 230.972656 39.648438 231.195312 C 58.824219 231.421875 125.539062 230.75 125.539062 230.75 "/>
<path style=" stroke:none;fill-rule:nonzero;fill:rgb(30.198669%,31.369019%,34.118652%);fill-opacity:1;" d="M 161.082031 246.796875 C 161.082031 246.796875 119.582031 265.597656 74.464844 250.824219 C 74.464844 250.824219 66.390625 248.304688 77.65625 247.972656 C 88.929688 247.632812 107.984375 249.339844 128.117188 242.269531 C 128.117188 242.269531 107.34375 252.667969 86.742188 251.074219 C 86.742188 251.074219 118.109375 258.035156 161.082031 246.796875 "/>
</g>
</svg>
